<svg width="512" height="512" viewBox="0 0 512 512" fill="none" xmlns="http://www.w3.org/2000/svg">
<path d="M501.899 204.805L501.202 202.962L431.755 21.7546C430.327 18.1987 427.823 15.1788 424.592 13.1185C421.362 11.0582 417.567 10.0609 413.741 10.2664C409.915 10.472 406.249 11.87 403.258 14.2646C400.266 16.6591 398.1 19.9299 397.062 23.6182L350.162 167.183H160.251L113.352 23.6182C112.291 19.9491 110.114 16.7013 107.123 14.3259C104.132 11.9505 100.475 10.5653 96.6609 10.3627C92.8467 10.16 89.0641 11.15 85.8381 13.1951C82.6122 15.2402 80.1031 18.239 78.6591 21.775L9.23186 202.982L8.51506 204.805C-1.4808 230.93 -2.71112 259.598 5.00966 286.484C12.7304 313.37 28.9837 337.017 51.3183 353.858L51.564 354.063L52.1784 354.514L157.855 433.71L210.284 473.339L242.11 497.423C245.848 500.25 250.407 501.78 255.094 501.78C259.781 501.78 264.34 500.25 268.079 497.423L299.925 473.339L352.354 433.71L458.788 354.043L459.075 353.838C481.409 337 497.663 313.358 505.388 286.476C513.112 259.594 511.887 230.93 501.899 204.805Z" fill="#2A8640"/>
<path d="M501.903 204.8L501.207 202.957C467.361 209.901 435.47 224.245 407.818 244.961L255.304 360.305L352.42 433.705L458.854 354.038L459.141 353.833C481.464 336.987 497.706 313.342 505.42 286.46C513.133 259.579 511.899 230.919 501.903 204.8Z" fill="#45B850"/>
<path d="M157.839 433.705L210.268 473.334L242.115 497.418C245.853 500.246 250.412 501.776 255.099 501.776C259.786 501.776 264.345 500.246 268.083 497.418L299.93 473.334L352.358 433.705L255.222 360.305L157.839 433.705Z" fill="#7DCF65"/>
<path d="M102.605 244.961C74.9549 224.246 43.0624 209.909 9.21602 202.977L8.5197 204.8C-1.47617 230.926 -2.70648 259.593 5.0143 286.479C12.7351 313.365 28.9883 337.012 51.3229 353.853L51.5687 354.058L52.1831 354.509L157.86 433.705L255.037 360.305L102.584 244.961H102.605Z" fill="#45B850"/>
</svg>
